<svg xmlns="http://www.w3.org/2000/svg" xmlns:xlink="http://www.w3.org/1999/xlink" width="0" height="0" style="position:absolute">

		<symbol id="arr-right" viewBox="0 0 6 8">
			<path fill-rule="evenodd" clip-rule="evenodd" d="M1.5.4l4 3.8-4 3.8H0l4-3.8L0 .4h1.5z"></path>
		</symbol>

		<symbol id="arr-right-long" viewBox="0 0 104 22">
			<path d="M101.563 12.427L91.507 2.429 92.944 1 103 10.998l-1.437 1.429z"></path><path fill-rule="evenodd" clip-rule="evenodd" d="M101.563 13.132L90.798 2.429 92.944.295 103.709 11l-2.146 2.133zm0-1.41l.728-.723-9.347-9.294-.728.724 9.347 9.293z"></path><path fill-rule="evenodd" clip-rule="evenodd" d="M101 12H1v-2h100v2z"></path><path fill-rule="evenodd" clip-rule="evenodd" d="M101.5 12.5H.5v-3h101v3zm-1-1v-1h-99v1h99z"></path><path d="M103 11.002L92.944 21l-1.437-1.428 10.056-9.998L103 11.002z"></path><path fill-rule="evenodd" clip-rule="evenodd" d="M103.709 11.002L92.944 21.705l-2.146-2.133 10.765-10.703 2.146 2.133zm-1.418 0l-.728-.723-9.347 9.293.728.723 9.347-9.293z"></path>
		</symbol>

		<symbol id="arr-right-middle" viewBox="0 0 23 12">
			<g clip-path="url(#a)"><path d="M22.202 6.799L16.62 1.19l.797-.8 5.582 5.608z"></path><path fill-rule="evenodd" clip-rule="evenodd" d="M21.992 6.63H0V5.499h21.992V6.63z"></path><path d="M23 6l-5.582 5.608-.797-.8 5.582-5.609z"></path></g><defs><clipPath id="a"><path transform="rotate(-180 11.5 6)" d="M0 0h23v12H0z"></path></clipPath></defs>
		</symbol>

		<symbol id="cross" viewBox="0 0 18 18">
			<path d="M15.2.8L.8 15.2a1.132 1.132 0 0 0 1.6 1.6L16.8 2.4A1.132 1.132 0 0 0 15.2.8z"></path><path d="M.8 2.4l14.4 14.4a1.132 1.132 0 0 0 1.6-1.6L2.4.8A1.132 1.132 0 0 0 .8 2.4z"></path>
		</symbol>

		<symbol id="decor-list" viewBox="0 0 270 390">
			<g clip-path="url(#a)"><path d="M270 2l-57.076 40.439-11.946 82.495 58.403-45.291L270 2z"></path><path d="M158.502 194.489l18.583-103.523-59.731 38.821-30.529 190.871 135.39-97.053 14.601-82.495-78.314 53.379z"></path><path d="M190.359 361.097l14.601-84.113L47.004 391.831l35.84-218.37-58.404 38.821L-26 518l216.359-156.903z"></path></g><defs><clipPath id="a"><path d="M0 0h270v390H0z"></path></clipPath></defs>
		</symbol>

		<symbol id="decor-list-mini" viewBox="0 0 24 42">
			<path d="M24 0l-4.628 3.292-.968 6.714 4.735-3.686L24 0z"></path><path d="M14.96 15.668l1.506-8.427-4.843 3.16-2.475 15.536 10.978-7.9 1.183-6.714-6.35 4.345z"></path><path d="M17.543 29.229l1.184-6.847L5.919 31.73l2.906-17.774-4.735 3.16L0 42l17.543-12.771z"></path>
		</symbol>

		<symbol id="decor-list-mini2" viewBox="0 0 220 344">
			<g clip-path="url(#a)"><path d="M0 2l57.076 40.439 11.946 82.495L10.62 79.643 0 2z"></path><path d="M111.498 194.489L92.915 90.966l59.731 38.821 30.529 190.871-135.39-97.053-14.601-82.495 78.314 53.379z"></path><path d="M79.641 361.097l-14.6-84.113 157.955 114.847-35.839-218.37 58.404 38.821L296 518 79.641 361.097z"></path></g><defs><clipPath id="a"><path transform="matrix(-1 0 0 1 220 0)" d="M0 0h220v344H0z"></path></clipPath></defs>
		</symbol>

		<symbol id="decor-list-mini3" viewBox="0 0 220 344">
			<g clip-path="url(#a)"><path d="M220 2l-57.076 40.439-11.946 82.495 58.403-45.291L220 2z"></path><path d="M108.502 194.489l18.583-103.523-59.73 38.821-30.53 190.871 135.39-97.053 14.601-82.495-78.314 53.379z"></path><path d="M140.359 361.097l14.601-84.113L-2.996 391.831l35.84-218.37-58.404 38.821L-76 518l216.359-156.903z"></path></g><defs><clipPath id="a"><path d="M0 0h220v344H0z"></path></clipPath></defs>
		</symbol>

		<symbol id="fax" viewBox="0 0 25 25">
			<path d="M22.656 6.25h-3.125a2.344 2.344 0 0 0-2.343 2.344v.781h-1.563V0H6.708L1.562 5.145v4.23H0v12.5C0 23.601 1.4 25 3.125 25h19.531A2.344 2.344 0 0 0 25 22.656V8.594a2.344 2.344 0 0 0-2.344-2.344zM6.25 2.667v2.02H4.23l2.02-2.02zM3.125 6.25h4.688V1.562h6.25v7.813H3.124V6.25zm14.063 17.188H3.124c-.863 0-1.563-.7-1.563-1.563V10.937h15.626v12.5zm6.25-.782c0 .432-.35.782-.782.782H18.75V8.594c0-.432.35-.781.781-.781h3.125c.432 0 .782.35.782.78v14.063z"></path><path d="M14.844 12.5H3.906v1.563h10.938V12.5zM5.469 15.625H3.906v1.563H5.47v-1.563zM8.594 15.625H7.03v1.563h1.563v-1.563zM11.719 15.625h-1.563v1.563h1.563v-1.563zM14.844 15.625H13.28v1.563h1.563v-1.563zM5.469 18.75H3.906v1.563H5.47V18.75zM8.594 18.75H7.03v1.563h1.563V18.75zM11.719 18.75h-1.563v1.563h1.563V18.75zM14.844 18.75H13.28v1.563h1.563V18.75z"></path>
		</symbol>

		<symbol id="file" viewBox="0 0 23 25">
			<path d="M3.737 7.144h6.739v1.464H3.737V7.144zM3.737 4.214h4.785v1.465H3.737V4.214z"></path><path d="M19.239 6.411V4.639L14.615 0H.831v22.07h3.857V25h17.48V6.411H19.24zm-4.196-3.906l1.704 1.709h-1.704v-1.71zM2.296 1.465h11.283v4.214h4.195v14.927H2.296V1.465zm18.408 22.07H6.154V22.07h13.085V7.876h1.465v15.66z"></path>
		</symbol>

		<symbol id="insta" viewBox="0 0 100 100">
			<path d="M98.205 49.214c0 27.18-21.984 49.215-49.102 49.215C21.984 98.429 0 76.394 0 49.214 0 22.034 21.984 0 49.103 0 76.22 0 98.205 22.034 98.205 49.214"></path><path d="M67.01 59.596a8.797 8.797 0 0 1-8.809 8.829H40.005c-4.977 0-8.808-4.031-8.808-8.829V41.36a8.797 8.797 0 0 1 8.808-8.828h18.196c4.977 0 8.809 4.031 8.809 8.828v18.237zM58.2 27.925H40.006c-7.466 0-13.404 5.948-13.404 13.434v18.237c0 7.483 5.938 13.435 13.404 13.435H58.2c7.468 0 13.404-5.952 13.404-13.435V41.36c0-7.486-6.13-13.434-13.404-13.434zm-9.192 29.559c-3.831 0-7.087-3.266-7.087-7.1 0-3.84 3.256-7.106 7.087-7.106s7.087 3.266 7.087 7.106c0 4.028-3.065 7.1-7.087 7.1zm0-18.62c-6.32 0-11.682 5.183-11.682 11.708 0 6.335 5.17 11.712 11.682 11.712 6.32 0 11.682-5.186 11.682-11.712 0-6.525-5.171-11.708-11.682-11.708zm14.552.002a2.875 2.875 0 0 0-2.87-2.88 2.876 2.876 0 0 0-2.874 2.88 2.877 2.877 0 0 0 2.874 2.88 2.877 2.877 0 0 0 2.87-2.88z"></path>
		</symbol>

		<symbol id="lang" viewBox="0 0 25 25">
			<path d="M12.5 0C5.608 0 0 5.608 0 12.5S5.608 25 12.5 25 25 19.392 25 12.5 19.392 0 12.5 0zm8.85 6.098a23.515 23.515 0 0 1-4.152 1.236 17.672 17.672 0 0 0-2.876-5.607 10.944 10.944 0 0 1 7.028 4.371zm-5.313 9.808a26.057 26.057 0 0 0-7.076 0 16.227 16.227 0 0 1-.003-6.801c1.165.16 2.344.27 3.542.27s2.375-.11 3.54-.27c.48 2.242.479 4.56-.002 6.801zm-.404-8.33c-2.08.27-4.188.27-6.267 0A16.115 16.115 0 0 1 12.5 1.976a16.11 16.11 0 0 1 3.133 5.602zm-4.958-5.85A17.668 17.668 0 0 0 7.8 7.335a23.537 23.537 0 0 1-4.15-1.236 10.938 10.938 0 0 1 7.025-4.371zM1.562 12.5c0-1.822.455-3.537 1.246-5.05A25.144 25.144 0 0 0 7.41 8.864a17.793 17.793 0 0 0 .002 7.284 24.981 24.981 0 0 0-4.605 1.407A10.893 10.893 0 0 1 1.563 12.5zm2.088 6.402a23.541 23.541 0 0 1 4.15-1.236 17.671 17.671 0 0 0 2.877 5.607 10.937 10.937 0 0 1-7.027-4.371zm5.717-1.479a24.451 24.451 0 0 1 6.266 0 16.135 16.135 0 0 1-3.133 5.602 16.11 16.11 0 0 1-3.133-5.602zm4.955 5.85a17.672 17.672 0 0 0 2.876-5.607c1.42.278 2.805.703 4.152 1.236a10.944 10.944 0 0 1-7.028 4.371zm3.264-7.128c.503-2.401.505-4.88.002-7.282a25.04 25.04 0 0 0 4.604-1.415 10.871 10.871 0 0 1 0 10.103 25.19 25.19 0 0 0-4.606-1.406z"></path>
		</symbol>

		<symbol id="loupe" viewBox="0 0 25 25">
			<path d="M24.757 23.578l-7.127-7.126A9.958 9.958 0 0 0 20 10c0-5.515-4.485-10-10-10S0 4.485 0 10s4.485 10 10 10a9.953 9.953 0 0 0 6.45-2.37l7.127 7.127a.837.837 0 0 0 1.18 0 .834.834 0 0 0 0-1.179zM10 18.333c-4.595 0-8.333-3.738-8.333-8.333 0-4.595 3.738-8.333 8.333-8.333 4.595 0 8.333 3.738 8.333 8.333 0 4.595-3.738 8.333-8.333 8.333z"></path>
		</symbol>

		<symbol id="mail" viewBox="0 0 20 20">
			<path d="M0 2.422v15.156h20V2.422H0zm10 8.723L2.053 3.594h15.894L10 11.144zM6.807 9.727l-5.635 5.818V4.373l5.635 5.354zm.85.807L10 12.761l2.344-2.227 5.687 5.872H1.969l5.687-5.872zm5.536-.807l5.635-5.354v11.172l-5.635-5.818z"></path>
		</symbol>

		<symbol id="phone" viewBox="0 0 25 25">
			<g clip-path="url(#a)"><path d="M18.515 14.06c-.939.939-2.405 2.406-3.632 3.642-1.459-.955-2.777-2.009-3.838-3.069-1.31-1.31-2.947-3.174-3.832-4.495 1.123-1.116 2.593-2.583 3.671-3.66L4.406 0 1.174 3.174l-.004.005C.265 4.083-.118 5.318.03 6.849.508 11.741 6.493 18.83 11.783 22.38c3.063 2.056 7.465 3.958 10.07 1.354 1.89-1.89 2.612-2.66 2.642-2.692l.485-.518-6.465-6.466zm2.3 8.639c-1.97 1.97-5.88.032-8.215-1.535C7.69 17.869 1.92 11.12 1.49 6.706c-.104-1.072.136-1.909.714-2.488l2.193-2.154L8.81 6.477c-2.238 2.235-2.912 2.9-3.448 3.431l.284.49c.864 1.488 2.867 3.776 4.362 5.272 1.641 1.64 3.325 2.799 5.087 3.9l.412-.416c.905-.913 2.22-2.232 3.008-3.02l4.42 4.418c-.41.423-1.094 1.121-2.12 2.147z"></path></g><defs><clipPath id="a"><path d="M0 0h25v25H0z"></path></clipPath></defs>
		</symbol>

		<symbol id="pin" viewBox="0 0 25 25">
			<path d="M19.89 3.059A10.388 10.388 0 0 0 12.5 0a10.388 10.388 0 0 0-7.39 3.059 10.372 10.372 0 0 0-3.062 7.385c0 1.952.541 3.929 1.609 5.874.84 1.53 2.005 3.045 3.466 4.502 2.467 2.464 4.904 3.903 5.006 3.963l.37.217.371-.217c.103-.06 2.54-1.5 5.007-3.963 1.46-1.457 2.627-2.972 3.466-4.502 1.068-1.945 1.609-3.922 1.609-5.874 0-2.79-1.087-5.412-3.061-7.385zm-3.024 16.702A27.47 27.47 0 0 1 12.5 23.29a27.47 27.47 0 0 1-4.366-3.528c-2.108-2.11-4.621-5.44-4.621-9.317 0-4.952 4.031-8.98 8.987-8.98s8.987 4.028 8.987 8.98c0 3.878-2.513 7.207-4.621 9.317z"></path><path d="M12.5 6.03a4.27 4.27 0 0 0-4.268 4.263 4.27 4.27 0 0 0 4.268 4.264 4.27 4.27 0 0 0 4.267-4.264A4.27 4.27 0 0 0 12.5 6.03zm0 7.063a2.804 2.804 0 0 1-2.803-2.8c0-1.544 1.257-2.8 2.803-2.8a2.804 2.804 0 0 1 2.802 2.8c0 1.544-1.257 2.8-2.802 2.8z"></path>
		</symbol>

		<symbol id="product1" viewBox="0 0 50 50">
			<path d="M47.536 8.63H33.223V2.465a.683.683 0 0 0-.684-.684H17.461a.684.684 0 0 0-.684.684v2.741H2.464a.684.684 0 0 0-.684.684v38.223a.684.684 0 0 0 .684.683H17.46a.684.684 0 0 0 .684-.684V41.37h13.71v6.166a.683.683 0 0 0 .684.684h14.997a.682.682 0 0 0 .684-.684V9.314a.684.684 0 0 0-.684-.683zM16.777 43.429H8.281V37.26a.683.683 0 0 0-1.367 0v6.167H3.147V6.572h3.767v4.345a.684.684 0 1 0 1.367 0V6.572h3.536v20.014a.684.684 0 0 0 1.367 0V6.572h3.594v36.856zm1.367-40.28h3.569v7.77a.684.684 0 1 0 1.367 0v-7.77h3.84v14.636a.684.684 0 1 0 1.367 0V3.147h3.568v36.855H23.08v-14.22a.683.683 0 1 0-1.367 0V40h-3.569V3.147zm28.709 43.705h-8.494v-6.167a.683.683 0 1 0-1.367 0v6.167h-3.77V9.998h8.672v8.645a.683.683 0 1 0 1.368 0V9.998h3.593l-.002 36.855z"></path><path d="M22.396 19.69a.684.684 0 0 0 .684-.684v-3.425a.684.684 0 1 0-1.368 0v3.425a.684.684 0 0 0 .684.684zM27.604 29.109a.684.684 0 0 0 .684-.684v-6.693a.684.684 0 1 0-1.368 0v6.693a.684.684 0 0 0 .684.684zM27.604 36.438a.685.685 0 0 0 .684-.684v-2.677a.683.683 0 1 0-1.368 0v2.677a.685.685 0 0 0 .684.684zM37.674 13.401a.684.684 0 0 0-.684.684v14.34a.684.684 0 0 0 1.367 0v-14.34a.684.684 0 0 0-.683-.684zM42.578 23.398a.683.683 0 0 0-.684.684v18.942a.684.684 0 0 0 1.368 0v-18.94a.683.683 0 0 0-.684-.686zM37.674 34.258a.684.684 0 0 0-.684.683v1.84a.683.683 0 0 0 1.367 0v-1.84a.684.684 0 0 0-.683-.683zM7.596 15.872a.684.684 0 0 0-.684.684v13.941a.683.683 0 0 0 1.367 0V16.556a.684.684 0 0 0-.683-.684zM12.5 32.871a.684.684 0 0 0-.684.684v3.425a.684.684 0 1 0 1.368 0v-3.425a.685.685 0 0 0-.684-.684z"></path>
		</symbol>

		<symbol id="product2" viewBox="0 0 50 43">
			<g clip-path="url(#a)"><path fill-rule="evenodd" clip-rule="evenodd" d="M48 .726a.726.726 0 0 1-.726.726H2.726a.726.726 0 1 1 0-1.452h44.548c.401 0 .726.325.726.726z"></path><g clip-path="url(#b)"><path d="M8.974 3.768a.684.684 0 0 0-1.363.11c.153 1.876.809 3.88 2.193 3.88a.692.692 0 0 0 .647-.942.673.673 0 0 0-.624-.422c-.169-.062-.707-.832-.853-2.626zM6.554 6.024a12.007 12.007 0 0 1-.393-3.112c0-3.718 1.598-6.858 3.49-6.858a.683.683 0 1 0 0-1.367c-2.724 0-4.857 3.612-4.857 8.225-.006 1.17.142 2.335.44 3.466a.684.684 0 1 0 1.32-.354z"></path><path d="M14.51 2.911a.684.684 0 1 0-1.367 0c0 3.717-1.6 6.858-3.491 6.858-.871 0-1.75-.715-2.41-1.96a.684.684 0 1 0-1.208.64c.92 1.733 2.204 2.687 3.618 2.687 2.724 0 4.858-3.613 4.858-8.225zM44.414 5.45a.684.684 0 0 0-.684-.684H27.798a.684.684 0 1 0 0 1.367H43.73a.683.683 0 0 0 .683-.684zM2.75 13c-.2 0-.39.04-.53.11-.141.07-.22.166-.22.265v8.75c0 .1.079.195.22.265.14.07.33.11.53.11.199 0 .39-.04.53-.11s.22-.166.22-.265v-8.75c0-.1-.08-.195-.22-.265S2.949 13 2.75 13z"></path><path d="M46.367 10.646a16.172 16.172 0 0 0 1.852-7.734c0-.72-.044-1.44-.13-2.157a.633.633 0 0 0-.013-.117 15.593 15.593 0 0 0-1.474-5.018.673.673 0 0 0-.138-.267c-1.445-2.722-3.649-4.466-6.116-4.466h-7.487l-4.645-6.558c-.009-.013-.02-.022-.03-.035-.625-.809-2.155-1.23-3.675-1.23-1.973 0-3.971.706-3.971 2.056 0 .166.032.332.095.486L22.4-9.113H9.652c-4.34 0-7.872 5.395-7.872 12.024 0 6.63 3.531 12.024 7.872 12.024h30.696c2.328 0 4.423-1.554 5.866-4.017a.68.68 0 0 0 .153-.271zM23.984-8.675l-1.47-4.41a7.517 7.517 0 0 0 1.997.26c.028 0 .057 0 .086-.002l2.63 5.409c-1.717-.096-2.906-.55-3.24-1.257h-.003zm4.758 1.247l-2.698-5.547a4.228 4.228 0 0 0 1.85-.78l3.857 5.445c-.281.297-1.335.763-3.007.882h-.002zm-4.232-8.14c1.547 0 2.429.458 2.586.679 0 .003.003.006.005.008v.002c-.128.194-.834.578-2.067.667a.712.712 0 0 0-.096.003 7.088 7.088 0 0 1-.43.016c-1.564 0-2.451-.468-2.593-.688.144-.217 1.031-.687 2.596-.687zM3.148 2.912c0-5.877 2.918-10.657 6.505-10.657 3.587 0 6.505 4.78 6.505 10.656a14.99 14.99 0 0 1-1.668 7.116.689.689 0 0 0-.109.191c-1.186 2.06-2.866 3.35-4.726 3.35-3.589 0-6.507-4.78-6.507-10.657zm37.201 10.656H13.291a9.402 9.402 0 0 0 2.095-2.432H25a.683.683 0 1 0 0-1.367h-8.887c.522-1.161.9-2.383 1.122-3.637h4.034a.684.684 0 1 0 0-1.367H17.43a18.366 18.366 0 0 0 .036-3.297h18.877a.684.684 0 1 0 0-1.367H17.305c-.537-3.41-2.027-6.258-4.014-7.846h9.663c.769 1.108 2.507 1.713 4.976 1.713.13 0 .262-.003.393-.007h.011c2.03-.063 4.077-.608 4.678-1.706h7.336c1.706 0 3.26 1.084 4.422 2.852h-8.738a.684.684 0 1 0 0 1.367h9.495A14.222 14.222 0 0 1 46.62.103h-3.847a.684.684 0 1 0 0 1.367h4.019c.039.472.06.953.06 1.443a15.17 15.17 0 0 1-1.53 6.858h-5.124a.684.684 0 1 0 0 1.367h4.281c-1.124 1.517-2.565 2.43-4.131 2.43z"></path><path d="M36.343 9.77H33.8a.683.683 0 0 0 0 1.367h2.543a.684.684 0 1 0 0-1.367zM2 28.834v1.242c0 .089.072.174.2.236.128.063.302.098.483.098.182 0 .356-.035.484-.098.128-.062.2-.147.2-.236v-1.242c0-.089-.072-.174-.2-.236a1.137 1.137 0 0 0-.484-.098c-.18 0-.355.035-.483.098-.128.062-.2.147-.2.236zM13.5 33.334v1.242c0 .089.072.174.2.236.128.063.302.098.483.098.182 0 .356-.035.484-.098.128-.062.2-.147.2-.236v-1.242c0-.089-.072-.174-.2-.236a1.137 1.137 0 0 0-.484-.098c-.181 0-.355.035-.483.098-.128.062-.2.147-.2.236zM18 28.834v1.242c0 .089.072.174.2.236.128.063.302.098.483.098.182 0 .355-.035.484-.098.128-.062.2-.147.2-.236v-1.242c0-.089-.072-.174-.2-.236a1.137 1.137 0 0 0-.484-.098c-.181 0-.355.035-.483.098-.128.062-.2.147-.2.236zM19 36.334v1.242c0 .089.072.174.2.236.128.063.302.098.483.098.182 0 .355-.035.484-.098.128-.062.2-.147.2-.236v-1.242c0-.089-.072-.174-.2-.236a1.137 1.137 0 0 0-.484-.098c-.181 0-.355.035-.483.098-.128.062-.2.147-.2.236z"></path></g><path fill-rule="evenodd" clip-rule="evenodd" d="M16.457 24.528c2.527-1.935 5.435-3.267 8.643-3.253 3.196.013 6.084 1.358 8.59 3.297 2.505 1.939 4.668 4.501 6.433 7.032 1.767 2.534 3.153 5.063 4.096 6.955.472.946.835 1.736 1.08 2.29a36.647 36.647 0 0 1 .35.82l.018.045.005.012.002.004L45 42l.674-.27.397.997H3.923l.404-.999L5 42l-.673-.272.002-.005.005-.012.019-.046a37.513 37.513 0 0 1 .356-.823c.249-.556.617-1.35 1.096-2.3.958-1.9 2.364-4.438 4.153-6.978 1.786-2.537 3.973-5.102 6.499-7.036zM6.107 41.274h37.791a54.08 54.08 0 0 0-.978-2.068c-.922-1.85-2.273-4.312-3.988-6.772-1.718-2.463-3.784-4.897-6.13-6.713-2.346-1.816-4.931-2.983-7.707-2.994-2.788-.012-5.39 1.143-7.756 2.954-2.366 1.812-4.455 4.25-6.194 6.719-1.736 2.465-3.106 4.937-4.043 6.795-.423.84-.757 1.552-.995 2.08z"></path></g><defs><clipPath id="a"><path d="M0 0h50v43H0z"></path></clipPath><clipPath id="b"><path transform="translate(2)" d="M0 0h46v38H0z"></path></clipPath></defs>
		</symbol>

		<symbol id="product22" viewBox="0 0 50 50">
			<g opacity=".6" clip-path="url(#a)"><path fill-rule="evenodd" clip-rule="evenodd" d="M48 4.726a.726.726 0 0 1-.726.726H2.726a.726.726 0 1 1 0-1.452h44.548c.401 0 .726.325.726.726z"></path><g clip-path="url(#b)"><path d="M8.974 7.768a.684.684 0 0 0-1.363.11c.153 1.876.809 3.88 2.193 3.88a.692.692 0 0 0 .647-.942.673.673 0 0 0-.624-.422c-.169-.062-.707-.832-.853-2.626zM6.554 10.024a12.007 12.007 0 0 1-.393-3.112c0-3.718 1.598-6.858 3.49-6.858a.684.684 0 1 0 0-1.367c-2.724 0-4.857 3.612-4.857 8.225-.006 1.17.142 2.335.44 3.466a.683.683 0 1 0 1.32-.354z"></path><path d="M14.51 6.912a.684.684 0 1 0-1.367 0c0 3.717-1.6 6.858-3.491 6.858-.871 0-1.75-.714-2.41-1.96a.683.683 0 1 0-1.208.64c.92 1.733 2.204 2.687 3.618 2.687 2.724 0 4.858-3.613 4.858-8.225zM44.414 9.45a.684.684 0 0 0-.684-.684H27.798a.684.684 0 1 0 0 1.367H43.73a.683.683 0 0 0 .683-.684zM2.75 17c-.2 0-.39.04-.53.11-.141.07-.22.166-.22.265v8.75c0 .1.079.195.22.265.14.07.33.11.53.11.199 0 .39-.04.53-.11s.22-.166.22-.265v-8.75c0-.1-.08-.195-.22-.265S2.949 17 2.75 17z"></path><mask id="c" maskUnits="userSpaceOnUse" x="2" y="4" width="47" height="15"><path d="M2 4h47v15H2V4z"></path></mask><path d="M46.587 14.582a16.172 16.172 0 0 0 1.852-7.734c0-.721-.044-1.441-.13-2.157a.641.641 0 0 0-.013-.117 15.596 15.596 0 0 0-1.474-5.019.673.673 0 0 0-.138-.267c-1.445-2.721-3.649-4.465-6.116-4.465h-7.487l-4.645-6.558c-.009-.013-.02-.023-.03-.035C27.78-12.58 26.25-13 24.73-13c-1.974 0-3.971.706-3.971 2.055 0 .167.032.332.095.487l1.764 5.281H9.872C5.532-5.177 2 .217 2 6.847c0 6.63 3.531 12.023 7.872 12.023h30.696c2.329 0 4.423-1.553 5.866-4.016a.68.68 0 0 0 .153-.272zM24.204-4.739l-1.47-4.411a7.518 7.518 0 0 0 1.996.26c.03 0 .058 0 .087-.002l2.63 5.41c-1.717-.097-2.906-.55-3.24-1.257h-.003zm4.758 1.247L26.264-9.04a4.23 4.23 0 0 0 1.85-.781l3.857 5.446c-.281.296-1.335.763-3.007.882h-.002zm-4.232-8.14c1.547 0 2.429.458 2.586.678 0 .003.003.006.005.01v.001c-.128.193-.834.578-2.068.666-.031 0-.063 0-.095.004a7.091 7.091 0 0 1-.43.016c-1.564 0-2.451-.469-2.593-.688.144-.217 1.031-.688 2.595-.688zM3.367 6.846C3.367.97 6.285-3.81 9.872-3.81c3.587 0 6.505 4.78 6.505 10.657a14.99 14.99 0 0 1-1.668 7.115.688.688 0 0 0-.109.191c-1.186 2.06-2.866 3.35-4.726 3.35-3.589 0-6.507-4.78-6.507-10.656zm37.201 10.656H13.511a9.399 9.399 0 0 0 2.095-2.431h9.614a.684.684 0 0 0 0-1.367h-8.888c.523-1.162.9-2.383 1.123-3.637h4.034a.683.683 0 0 0 0-1.367H17.65a18.336 18.336 0 0 0 .036-3.297h18.877a.684.684 0 1 0 0-1.367H17.525c-.537-3.41-2.027-6.258-4.014-7.847h9.663c.769 1.108 2.507 1.714 4.976 1.714.13 0 .262-.003.393-.007h.011c2.03-.064 4.077-.609 4.678-1.706h7.336c1.706 0 3.26 1.083 4.422 2.851h-8.738a.683.683 0 0 0 0 1.367h9.494a14.222 14.222 0 0 1 1.094 3.63h-3.847a.684.684 0 1 0 0 1.366h4.019c.039.473.06.954.06 1.443a15.17 15.17 0 0 1-1.53 6.858h-5.124a.684.684 0 0 0 0 1.367h4.281c-1.124 1.517-2.565 2.43-4.131 2.43z" mask="url(#c)"></path><path d="M36.343 13.77H33.8a.683.683 0 0 0 0 1.367h2.543a.684.684 0 1 0 0-1.367zM2 32.834v1.242c0 .089.072.174.2.236.128.063.302.098.483.098.182 0 .356-.035.484-.098.128-.062.2-.147.2-.236v-1.242c0-.089-.072-.174-.2-.236a1.137 1.137 0 0 0-.484-.098c-.18 0-.355.035-.483.098-.128.062-.2.147-.2.236zM13.5 37.334v1.242c0 .089.072.174.2.236.128.063.302.098.483.098.182 0 .356-.035.484-.098.128-.062.2-.147.2-.236v-1.242c0-.089-.072-.174-.2-.236a1.137 1.137 0 0 0-.484-.098c-.181 0-.355.035-.483.098-.128.062-.2.147-.2.236zM18 32.834v1.242c0 .089.072.174.2.236.128.063.302.098.483.098.182 0 .355-.035.484-.098.128-.062.2-.147.2-.236v-1.242c0-.089-.072-.174-.2-.236a1.137 1.137 0 0 0-.484-.098c-.181 0-.355.035-.483.098-.128.062-.2.147-.2.236zM19 40.334v1.242c0 .089.072.174.2.236.128.063.302.098.483.098.182 0 .355-.035.484-.098.128-.062.2-.147.2-.236v-1.242c0-.089-.072-.174-.2-.236a1.137 1.137 0 0 0-.484-.098c-.181 0-.355.035-.483.098-.128.062-.2.147-.2.236z"></path></g><path fill-rule="evenodd" clip-rule="evenodd" d="M16.457 28.528c2.527-1.935 5.435-3.267 8.643-3.253 3.196.013 6.084 1.358 8.59 3.297 2.505 1.939 4.668 4.501 6.433 7.032 1.767 2.534 3.153 5.063 4.096 6.955.472.946.835 1.736 1.08 2.29a36.647 36.647 0 0 1 .35.82l.018.045.005.012.002.004L45 46l.674-.27.397.997H3.923l.404-.999L5 46l-.673-.272.002-.005.005-.012.019-.046a37.513 37.513 0 0 1 .356-.823c.249-.556.617-1.35 1.096-2.3.958-1.9 2.364-4.438 4.153-6.978 1.786-2.537 3.973-5.102 6.499-7.036zM6.107 45.274h37.791a54.08 54.08 0 0 0-.978-2.068c-.922-1.85-2.273-4.312-3.988-6.772-1.718-2.463-3.784-4.897-6.13-6.713-2.346-1.816-4.931-2.983-7.707-2.994-2.788-.012-5.39 1.143-7.756 2.954-2.366 1.812-4.455 4.25-6.194 6.719-1.736 2.465-3.106 4.937-4.043 6.795-.423.84-.757 1.552-.995 2.08z"></path></g><defs><clipPath id="a"><path transform="translate(0 4)" d="M0 0h50v43H0z"></path></clipPath><clipPath id="b"><path transform="translate(2 4)" d="M0 0h46v38H0z"></path></clipPath></defs>
		</symbol>

		<symbol id="product3" viewBox="0 0 50 50">
			<path d="M18.164 31.355c0-2.563-1.161-4.497-2.702-4.497s-2.703 1.934-2.703 4.497c0 2.563 1.162 4.496 2.703 4.496a.684.684 0 1 0 0-1.367c-.545 0-1.335-1.219-1.335-3.13 0-1.91.79-3.128 1.335-3.128.544 0 1.335 1.218 1.335 3.129a.684.684 0 1 0 1.367 0zM8.164 35.269a.683.683 0 1 0-.937-.996.652.652 0 0 1-.43.21c-.544 0-1.335-1.218-1.335-3.128 0-1.91.79-3.13 1.335-3.13a.684.684 0 1 0 0-1.367c-1.54 0-2.703 1.934-2.703 4.497 0 2.563 1.163 4.496 2.703 4.496a1.992 1.992 0 0 0 1.367-.582z"></path><path d="M8.594 33.233a.684.684 0 0 0 .792-.554c.076-.437.114-.88.114-1.325a.684.684 0 1 0-1.368 0c.001.365-.03.728-.092 1.087a.683.683 0 0 0 .554.792zM13.125 17.963a.683.683 0 0 0-.683.683c0 1.791-.778 2.935-1.313 2.935-.535 0-1.312-1.143-1.312-2.934 0-1.791.777-2.934 1.312-2.934a.684.684 0 1 0 0-1.367c-1.527 0-2.68 1.849-2.68 4.3 0 2.452 1.153 4.302 2.68 4.302 1.527 0 2.68-1.85 2.68-4.302a.684.684 0 0 0-.684-.683z"></path><path d="M48.22 31.375v-.02c0-3.935-2.198-7.027-5.005-7.038h-1.35c1.232-1.271 2.022-3.317 2.022-5.671 0-3.935-2.197-7.026-5.005-7.038H11.129c-2.766 0-5.016 3.157-5.016 7.038 0 2.328.813 4.389 2.058 5.67H6.797c-2.766 0-5.016 3.158-5.016 7.039 0 3.88 2.25 7.037 5.016 7.037h36.421c2.795-.01 4.985-3.08 5-6.995v-.014l.002-.008zM41.315 14.45H25.817a.683.683 0 1 0 0 1.367h16.21c.331.907.498 1.864.493 2.829a8.222 8.222 0 0 1-.432 2.671H20.892a.683.683 0 1 0 0 1.368h20.534c-.657 1.004-1.556 1.627-2.547 1.632H14.088a7.974 7.974 0 0 0 2.033-4.988h13.84a.684.684 0 1 0 0-1.367h-13.84a7.977 7.977 0 0 0-2.031-4.986h24.79c.936.004 1.79.565 2.435 1.474zM12.504 25.684a6.827 6.827 0 0 0-1.375 2.14 6.812 6.812 0 0 0-1.374-2.14h2.749zM7.48 18.646c0-3.074 1.671-5.67 3.65-5.67 1.977 0 3.649 2.596 3.649 5.67 0 3.073-1.671 5.67-3.65 5.67-1.978 0-3.649-2.597-3.649-5.67zM3.147 31.355c0-3.074 1.671-5.671 3.65-5.671 1.978 0 3.649 2.597 3.649 5.67 0 3.074-1.671 5.67-3.65 5.67-1.977 0-3.649-2.596-3.649-5.67zm7.982 3.528c.32.793.786 1.52 1.375 2.14H9.755a6.812 6.812 0 0 0 1.374-2.14zm.684-3.53c0-3.074 1.671-5.67 3.65-5.67 1.977 0 3.649 2.596 3.649 5.67s-1.672 5.67-3.65 5.67-3.65-2.595-3.65-5.669zm31.402 5.672H18.42a7.966 7.966 0 0 0 2.031-4.961h4.731a.683.683 0 0 0 0-1.367h-4.726a9.3 9.3 0 0 0-.408-2.188h15.433a.684.684 0 1 0 0-1.367h-16.01a6.46 6.46 0 0 0-1.05-1.46h24.79c1.865.008 3.404 2.203 3.614 5.014H30.874a.684.684 0 1 0 0 1.367h15.947c-.226 2.787-1.756 4.954-3.606 4.962z"></path><path d="M38.68 28.51h1.953a.684.684 0 1 0 0-1.366H38.68a.684.684 0 1 0 0 1.367zM32.149 33.952H23.65a.684.684 0 0 0 0 1.367h8.498a.684.684 0 1 0 0-1.367zM42.922 33.952H37.72a.683.683 0 0 0 0 1.367h5.202a.684.684 0 1 0 0-1.367zM19.067 15.817h2.3a.684.684 0 1 0 0-1.367h-2.3a.684.684 0 1 0 0 1.367zM33.768 19.33h2.666a.684.684 0 1 0 0-1.367h-2.666a.684.684 0 1 0 0 1.367z"></path>
		</symbol>

		<symbol id="product4" viewBox="0 0 50 50">
			<path d="M8.974 29.768a.684.684 0 0 0-1.363.11c.153 1.876.809 3.88 2.193 3.88a.692.692 0 0 0 .647-.942.673.673 0 0 0-.624-.422c-.169-.062-.707-.832-.853-2.626zM7.72 27.125a.684.684 0 0 0 1.348.228c.204-1.205.574-1.758.737-1.856.265.154.863 1.314.863 3.443a.684.684 0 1 0 1.367 0c0-2.32-.698-4.818-2.23-4.818-1.003 0-1.763 1.095-2.085 3.003zM12.51 25.038a.683.683 0 1 0 1.287-.463 7.789 7.789 0 0 0-1.36-2.443.683.683 0 1 0-1.04.888 6.54 6.54 0 0 1 1.114 2.018z"></path><path d="M6.554 32.023a12.008 12.008 0 0 1-.393-3.112c0-3.718 1.598-6.858 3.49-6.858a.683.683 0 1 0 0-1.367c-2.724 0-4.857 3.612-4.857 8.225-.006 1.17.142 2.335.44 3.466a.683.683 0 1 0 1.32-.354zM14.51 28.911a.683.683 0 1 0-1.367 0c0 3.717-1.6 6.858-3.491 6.858-.871 0-1.75-.715-2.41-1.96a.683.683 0 1 0-1.208.64c.92 1.733 2.204 2.687 3.618 2.687 2.724 0 4.858-3.613 4.858-8.225zM25 21.105h-5.866a.683.683 0 1 0 0 1.368H25a.683.683 0 0 0 0-1.367zM31.893 21.105h-2.374a.684.684 0 1 0 0 1.368h2.374a.683.683 0 0 0 0-1.367zM44.414 31.45a.684.684 0 0 0-.684-.684H27.798a.684.684 0 1 0 0 1.367H43.73a.683.683 0 0 0 .683-.684z"></path><path d="M46.367 36.647a16.172 16.172 0 0 0 1.852-7.735c0-.72-.044-1.44-.13-2.156a.632.632 0 0 0-.013-.118 15.594 15.594 0 0 0-1.474-5.018.673.673 0 0 0-.138-.267c-1.445-2.722-3.649-4.466-6.116-4.466h-7.487l-4.645-6.558c-.009-.013-.02-.022-.03-.035-.625-.809-2.155-1.23-3.675-1.23-1.973 0-3.971.706-3.971 2.056 0 .166.032.332.095.486l1.764 5.281H9.652c-4.34 0-7.872 5.395-7.872 12.024 0 6.63 3.531 12.024 7.872 12.024h30.696c2.328 0 4.423-1.554 5.866-4.017a.68.68 0 0 0 .153-.271zM23.984 17.325l-1.47-4.41a7.517 7.517 0 0 0 1.997.26c.028 0 .057 0 .086-.002l2.63 5.409c-1.717-.097-2.906-.55-3.24-1.257h-.003zm4.758 1.247l-2.698-5.547a4.228 4.228 0 0 0 1.85-.78l3.857 5.445c-.281.297-1.335.763-3.007.882h-.002zm-4.232-8.14c1.547 0 2.429.458 2.586.679 0 .003.003.006.005.008v.002c-.128.194-.834.578-2.067.667a.712.712 0 0 0-.096.003 7.088 7.088 0 0 1-.43.016c-1.564 0-2.451-.468-2.593-.688.144-.217 1.031-.687 2.596-.687zM3.148 28.912c0-5.877 2.918-10.657 6.505-10.657 3.587 0 6.505 4.78 6.505 10.656a14.99 14.99 0 0 1-1.668 7.116.689.689 0 0 0-.109.191c-1.186 2.06-2.866 3.35-4.726 3.35-3.589 0-6.507-4.78-6.507-10.657zm37.201 10.656H13.291a9.402 9.402 0 0 0 2.095-2.432H25a.683.683 0 1 0 0-1.367h-8.887c.522-1.161.9-2.383 1.122-3.637h4.034a.684.684 0 1 0 0-1.367H17.43a18.365 18.365 0 0 0 .036-3.297h18.877a.684.684 0 0 0 0-1.367H17.305c-.537-3.41-2.027-6.258-4.014-7.846h9.663c.769 1.108 2.507 1.713 4.976 1.713.13 0 .262-.003.393-.007h.011c2.03-.063 4.077-.608 4.678-1.706h7.336c1.706 0 3.26 1.084 4.422 2.852h-8.738a.684.684 0 0 0 0 1.367h9.495a14.222 14.222 0 0 1 1.093 3.629h-3.847a.684.684 0 0 0 0 1.367h4.019c.039.472.06.953.06 1.443a15.17 15.17 0 0 1-1.53 6.858h-5.124a.684.684 0 1 0 0 1.367h4.281c-1.124 1.517-2.565 2.43-4.131 2.43z"></path><path d="M36.343 35.769H33.8a.683.683 0 1 0 0 1.367h2.543a.684.684 0 1 0 0-1.367z"></path>
		</symbol>

		<symbol id="screen" viewBox="0 0 1845 960">
			<path fill-rule="evenodd" clip-rule="evenodd" d="M1845 0H0v960h1845V0zM461.126 487.751c11.231 5.072 16.847 12.318 16.847 21.738 0 9.782-5.253 17.39-15.76 22.824-10.506 5.072-24.817 7.608-42.931 7.608-16.666 0-37.86-5.253-63.582-15.76l-24.455 65.213c14.13 8.695 30.433 16.122 48.909 22.281 18.477 5.796 37.135 8.694 55.974 8.694 26.447 0 49.815-4.528 70.103-13.585 20.289-9.42 36.048-22.462 47.279-39.128 11.231-17.027 16.847-36.41 16.847-58.147 0-29.346-7.608-52.714-22.825-70.103-14.853-17.39-33.149-28.803-54.886-34.237l54.343-46.735v-76.081H345.918v76.081h99.449l-70.647 56.517v65.212h44.562c17.027 0 30.976 2.536 41.844 7.608zm318.793-194.55c-20.288-10.868-40.758-16.303-61.408-16.303-21.013 0-41.845 5.616-62.495 16.847-20.651 10.869-38.222 29.164-52.714 54.887-14.129 25.722-21.193 59.053-21.193 99.992 0 41.301 6.883 74.813 20.65 100.535 14.129 25.361 31.519 43.656 52.17 54.887 21.013 10.869 42.207 16.303 63.582 16.303s42.207-5.434 62.495-16.303c20.65-11.231 37.859-29.526 51.626-54.887 13.767-25.722 20.651-59.234 20.651-100.535 0-41.301-7.065-74.813-21.194-100.536-14.13-25.722-31.519-44.018-52.17-54.887zm-100.536 90.754c7.609-17.752 20.651-26.628 39.128-26.628 18.114 0 30.794 8.695 38.04 26.085 7.246 17.39 10.869 39.127 10.869 65.212 0 30.432-3.804 53.619-11.412 69.56-7.246 15.578-19.745 23.367-37.497 23.367-33.331 0-49.996-30.975-49.996-92.927 0-25.723 3.623-47.279 10.868-64.669zm421.287 230.96h50.29v-184.32h-139.48c-2.42 36.82-5.33 65.782-8.74 86.884-3.293 20.993-7.085 35.996-11.371 45.009-4.177 9.012-9.397 13.519-15.662 13.519-5.386 0-10.772-1.099-16.157-3.298v40.228c7.474 3.517 17.036 5.275 28.686 5.275 13.634 0 24.624-4.506 32.974-13.519 8.46-9.122 15.22-23.795 20.28-44.019 5.05-20.333 9.34-51.108 12.86-92.325h46.32v146.566zm139.29-141.784c6.05-6.815 14.4-10.222 25.06-10.222 10.66 0 19.12 3.407 25.39 10.222 6.26 6.704 9.51 16.266 9.73 28.686h-70.57c.88-12.42 4.35-21.982 10.39-28.686zm-37.42 120.516c16.7 16.377 39.89 24.565 69.57 24.565 14.4 0 26.6-1.099 36.6-3.297 10-2.088 19.4-5.331 28.19-9.727V566.28c-10.77 5.056-21.1 8.738-30.99 11.046-9.9 2.308-20.39 3.462-31.49 3.462-14.29 0-25.39-4.012-33.31-12.035-7.91-8.024-12.14-19.18-12.69-33.468h118.87v-24.4c0-26.159-7.26-46.657-21.76-61.495-14.51-14.838-34.79-22.257-60.84-22.257-27.26 0-48.64 8.463-64.13 25.389-15.39 16.817-23.08 40.667-23.08 71.552 0 30.006 8.35 53.197 25.06 69.573zm322.94-125.298v-37.754h-171.13v37.754h60.51v146.566h50.28V468.349h60.34z" fill-opacity=".95"></path>
		</symbol>

		<symbol id="soc-fb" viewBox="0 0 36 35">
			<path fill-rule="evenodd" clip-rule="evenodd" d="M35.463 17.225c0 9.513-7.939 17.225-17.731 17.225C7.939 34.45 0 26.738 0 17.225 0 7.712 7.939 0 17.732 0c9.792 0 17.731 7.712 17.731 17.225z"></path><path fill-rule="evenodd" clip-rule="evenodd" d="M19.008 14.446v-1.878c0-.15.077-.226.154-.376.077-.075.155-.225.31-.225.154-.076.386-.076.619-.076h1.469V9.112h-2.32c-1.315 0-2.32.3-2.861.901-.62.601-.852 1.502-.852 2.704v1.654h-1.701v2.854h1.701v8.114h3.48v-8.114h2.321l.309-2.779h-2.63z"></path>
		</symbol>

		<symbol id="soc-insta" viewBox="0 0 35 35">
			<path fill-rule="evenodd" clip-rule="evenodd" d="M35 17.5C35 27.165 27.165 35 17.5 35S0 27.165 0 17.5 7.835 0 17.5 0 35 7.835 35 17.5z"></path><path fill-rule="evenodd" clip-rule="evenodd" d="M23.882 21.192a3.132 3.132 0 0 1-3.14 3.14h-6.485a3.131 3.131 0 0 1-3.139-3.14v-6.485a3.132 3.132 0 0 1 3.14-3.14h6.484a3.131 3.131 0 0 1 3.14 3.14v6.485zM20.742 9.93h-6.485a4.748 4.748 0 0 0-4.777 4.777v6.485a4.748 4.748 0 0 0 4.777 4.777h6.485a4.748 4.748 0 0 0 4.777-4.777v-6.485c0-2.662-2.184-4.777-4.777-4.777zm-3.276 10.51c-1.365 0-2.526-1.161-2.526-2.525 0-1.365 1.16-2.526 2.526-2.526 1.366 0 2.526 1.16 2.526 2.526 0 1.433-1.092 2.525-2.526 2.525zm.001-6.621c-2.252 0-4.163 1.843-4.163 4.163 0 2.253 1.843 4.165 4.163 4.165 2.253 0 4.164-1.844 4.164-4.165a4.137 4.137 0 0 0-4.164-4.163zm5.187 0a1.023 1.023 0 1 0-2.047 0 1.023 1.023 0 0 0 2.047 0z"></path>
		</symbol>

		<symbol id="soc-telegram" viewBox="0 0 36 35">
			<path fill-rule="evenodd" clip-rule="evenodd" d="M35.462 17.225c0 9.513-7.939 17.225-17.731 17.225C7.939 34.45 0 26.738 0 17.225 0 7.712 7.939 0 17.73 0c9.793 0 17.732 7.712 17.732 17.225z"></path><path fill-rule="evenodd" clip-rule="evenodd" d="M21.167 13.293l-6.12 5.494c-.234.226-.388.451-.388.752l-.233 1.506c0 .226-.31.226-.388 0l-.774-2.71c-.077-.3.077-.677.31-.827l7.36-4.44c.233-.076.31.15.233.225zm2.943-3.01L8.616 16.078a.44.44 0 0 0 0 .828l3.796 1.355 1.472 4.59c.077.302.465.378.698.227l2.091-1.656a.722.722 0 0 1 .775 0l3.796 2.71c.233.15.62.075.697-.227l2.79-12.944c.077-.527-.311-.828-.621-.678z"></path>
		</symbol>

		<symbol id="soc-vk" viewBox="0 0 35 35">
			<path fill-rule="evenodd" clip-rule="evenodd" d="M35 17.5C35 27.165 27.166 35 17.5 35S0 27.165 0 17.5 7.834 0 17.5 0 35 7.835 35 17.5z"></path><path fill-rule="evenodd" clip-rule="evenodd" d="M27.756 13.05c.147-.49 0-.85-.698-.85h-2.311c-.589 0-.859.311-1.006.655 0 0-1.175 2.864-2.84 4.724-.538.538-.783.709-1.077.709-.146 0-.367-.17-.367-.66v-4.579c0-.587-.163-.849-.653-.849h-3.631c-.367 0-.587.274-.587.532 0 .556.832.684.917 2.25v3.404c0 .746-.134.881-.428.881-.783 0-2.689-2.876-3.819-6.168-.221-.64-.444-.899-1.034-.899H7.911c-.66 0-.792.311-.792.655 0 .611.782 3.646 3.648 7.662 1.909 2.741 4.599 4.227 7.047 4.227 1.47 0 1.65-.33 1.65-.899v-2.071c0-.66.14-.792.605-.792.342 0 .93.17 2.301 1.493 1.567 1.566 1.977 2.422 2.858 2.422h2.312c.66 0 .99-.33.8-.983-.21-.648-1.11-1.742-2.102-2.859-.538-.637-1.346-1.322-1.59-1.665-.343-.44-.246-.637 0-1.028 0 0 2.814-3.966 3.108-5.312z"></path>
		</symbol>

		<symbol id="soc-youtube" viewBox="0 0 36 35">
			<path fill-rule="evenodd" clip-rule="evenodd" d="M35.462 17.225c0 9.513-7.938 17.225-17.731 17.225C7.938 34.45 0 26.738 0 17.225 0 7.712 7.938 0 17.73 0c9.794 0 17.732 7.712 17.732 17.225z"></path><path fill-rule="evenodd" clip-rule="evenodd" d="M15.717 19.949V14.43l4.961 2.724-4.96 2.794zm11.144-7.193c-.216-.768-.864-1.466-1.654-1.676-1.51-.42-7.476-.42-7.476-.42s-5.967 0-7.477.42c-.79.21-1.438.838-1.654 1.676-.431 1.466-.431 4.469-.431 4.469s0 3.003.431 4.47c.216.768.864 1.466 1.655 1.676 1.509.419 7.476.419 7.476.419s5.967 0 7.476-.42a2.334 2.334 0 0 0 1.654-1.675c.431-1.467.431-4.47.431-4.47s-.072-3.003-.431-4.47z"></path>
		</symbol>

		<symbol id="tel" viewBox="0 0 20 20">
			<path d="M14.823 11.248c-.75.751-1.924 1.925-2.907 2.914-1.168-.764-2.224-1.607-3.073-2.456-1.049-1.047-2.36-2.539-3.068-3.596.9-.892 2.076-2.066 2.94-2.928L3.527 0 .94 2.54l-.004.003c-.724.723-1.03 1.711-.91 2.936.381 3.915 5.172 9.585 9.408 12.426 2.452 1.644 5.977 3.166 8.062 1.083 1.513-1.512 2.092-2.128 2.116-2.154L20 16.42l-5.177-5.173zm1.843 6.911c-1.579 1.577-4.708.026-6.578-1.228-3.93-2.636-8.55-8.034-8.895-11.566-.083-.858.109-1.527.571-1.991L3.52 1.651l3.534 3.53C5.262 6.97 4.722 7.503 4.293 7.928l.227.392c.692 1.19 2.296 3.02 3.493 4.217 1.314 1.312 2.662 2.239 4.072 3.12l.33-.332c.725-.731 1.778-1.786 2.409-2.417l3.538 3.535c-.328.338-.875.896-1.696 1.717z"></path>
		</symbol>

		<symbol id="vk" viewBox="0 0 25 25">
			<path fill-rule="evenodd" clip-rule="evenodd" d="M25 12.5C25 19.404 19.404 25 12.5 25S0 19.404 0 12.5C0 5.597 5.596 0 12.5 0S25 5.597 25 12.5z"></path><path fill-rule="evenodd" clip-rule="evenodd" d="M19.826 9.321c.105-.349 0-.607-.499-.607h-1.651c-.42 0-.613.222-.718.468 0 0-.84 2.045-2.029 3.374-.384.385-.56.507-.769.507-.104 0-.262-.122-.262-.472v-3.27c0-.42-.117-.607-.467-.607h-2.593c-.262 0-.42.196-.42.38 0 .398.595.489.655 1.608v2.431c0 .533-.095.63-.305.63-.56 0-1.921-2.055-2.728-4.406-.158-.458-.317-.643-.739-.643h-1.65c-.472 0-.566.222-.566.468 0 .437.559 2.604 2.605 5.473 1.364 1.958 3.286 3.02 5.035 3.02 1.049 0 1.178-.236 1.178-.643v-1.48c0-.471.1-.565.432-.565.244 0 .665.122 1.644 1.066 1.119 1.12 1.412 1.73 2.041 1.73h1.651c.472 0 .707-.236.571-.701-.149-.463-.792-1.245-1.5-2.043-.385-.454-.962-.944-1.137-1.189-.245-.314-.175-.455 0-.734 0 0 2.01-2.833 2.22-3.795z"></path>
		</symbol>

		<symbol id="vk2" viewBox="0 0 25 25">
			<path fill-rule="evenodd" clip-rule="evenodd" d="M25 12.5C25 19.404 19.404 25 12.5 25S0 19.404 0 12.5C0 5.597 5.596 0 12.5 0S25 5.597 25 12.5z"></path><path fill-rule="evenodd" clip-rule="evenodd" d="M19.827 9.321c.105-.349 0-.607-.499-.607h-1.651c-.42 0-.613.223-.718.468 0 0-.84 2.045-2.029 3.374-.384.385-.56.507-.77.507-.104 0-.261-.122-.261-.472v-3.27c0-.42-.117-.607-.467-.607H10.84c-.262 0-.42.196-.42.38 0 .398.595.49.655 1.608v2.431c0 .533-.095.63-.305.63-.56 0-1.921-2.055-2.728-4.406-.158-.457-.317-.643-.739-.643h-1.65c-.472 0-.566.223-.566.468 0 .437.559 2.604 2.605 5.473 1.364 1.958 3.285 3.02 5.035 3.02 1.049 0 1.178-.236 1.178-.643v-1.48c0-.471.1-.565.432-.565.244 0 .665.122 1.644 1.066 1.119 1.12 1.412 1.73 2.041 1.73h1.651c.472 0 .707-.235.571-.701-.149-.463-.792-1.245-1.5-2.042-.385-.455-.962-.945-1.137-1.19-.245-.314-.175-.455 0-.734 0 0 2.01-2.833 2.22-3.795z"></path>
		</symbol>

		<symbol viewBox="0 0 24 24" id="camera"><g transform="translate(0 -1028.4)"><path d="M22.085 1035.955a10.997 10.997-23.5 1 1-20.17 8.77 10.997 10.997-23.5 1 1 20.17-8.77z" fill="#1abc9c"/><path d="M21 1040.335a9 9 0 1 1-18 0 9 9 0 1 1 18 0z" fill="#ecf0f1"/><path d="M1.034 1039.8c-.083 1.7.176 3.3.875 4.9 2.42 5.6 8.898 8.2 14.468 5.8 4.29-1.9 6.778-6.2 6.593-10.6-.202 4-2.63 7.8-6.592 9.6-5.57 2.4-12.047-.2-14.47-5.8-.556-1.2-.82-2.6-.874-3.9z" fill="#16a085"/><path d="M20 1040.4c0 .5-.448 1-1 1h-6v-2h6c.552 0 1 .4 1 1z" fill="#3498db"/><path d="M12 1033.4c-.552 0-1 .448-1 1v5h2v-5c0-.552-.448-1-1-1z" fill="#2c3e50"/><path fill="#c0392b" d="M6.017 1045.705l4.95-4.95.707.707-4.95 4.95z"/><path d="M12 1038.4c-1.105 0-2 .9-2 2s.895 2 2 2 2-.9 2-2-.895-2-2-2zm0 1c.552 0 1 .4 1 1 0 .5-.448 1-1 1s-1-.5-1-1c0-.6.448-1 1-1z" fill="#34495e"/></g></symbol>

		<symbol id="arr-to-left" viewBox="0 0 10 18">
			<path d="M.355 9.494l8.311 8.312a.693.693 0 0 0 .98-.98L1.824 9.004l7.822-7.822a.693.693 0 0 0-.98-.98L.355 8.516a.693.693 0 0 0 0 .979z"></path>
		</symbol>

		<symbol id="arr-in-circle"  width="50px" height="50px" viewBox="0 0 32 32" fill="url(#paint0_linear_311_892)">
			<style>
				svg stop {
					transition: stop-color ease-in-out .7s;
				}
				svg:hover stop {
					stop-color: red;
				}
				button svg stop {
					stop-color: #BDBEC1;
				}
			</style>
			<g clip-path="url(#clip0_311_892)">
				<path d="M32 16C32 20.2435 30.3143 24.3131 27.3137 27.3137C24.3131 30.3143 20.2435 32 16 32C11.7565 32 7.68687 30.3143 4.68629 27.3137C1.68571 24.3131 0 20.2435 0 16C0 11.7565 1.68571 7.68687 4.68629 4.68629C7.68687 1.68571 11.7565 0 16 0C20.2435 0 24.3131 1.68571 27.3137 4.68629C30.3143 7.68687 32 11.7565 32 16ZM17 9C17 8.73478 16.8946 8.48043 16.7071 8.29289C16.5196 8.10536 16.2652 8 16 8C15.7348 8 15.4804 8.10536 15.2929 8.29289C15.1054 8.48043 15 8.73478 15 9V20.586L10.708 16.292C10.5202 16.1042 10.2656 15.9987 10 15.9987C9.73445 15.9987 9.47977 16.1042 9.292 16.292C9.10423 16.4798 8.99874 16.7344 8.99874 17C8.99874 17.2656 9.10423 17.5202 9.292 17.708L15.292 23.708C15.3849 23.8011 15.4952 23.875 15.6167 23.9254C15.7382 23.9758 15.8685 24.0018 16 24.0018C16.1315 24.0018 16.2618 23.9758 16.3833 23.9254C16.5048 23.875 16.6151 23.8011 16.708 23.708L22.708 17.708C22.8958 17.5202 23.0013 17.2656 23.0013 17C23.0013 16.7344 22.8958 16.4798 22.708 16.292C22.5202 16.1042 22.2656 15.9987 22 15.9987C21.7344 15.9987 21.4798 16.1042 21.292 16.292L17 20.586V9Z" />
			</g>
			<defs>

				<linearGradient id="paint0_linear_311_892" x1="-11.7143" y1="41.7143" x2="38.8571" y2="4.19665e-07" gradientUnits="userSpaceOnUse">
					<stop stop-color="#30B3ED" />
					<stop offset="0.277625" stop-color="#299EE2" />
					<stop offset="0.556873" stop-color="#258BD7" />
					<stop offset="0.78005" stop-color="#44A1E0" />
					<stop offset="1" stop-color="#51A8E3" />
				</linearGradient>
				<clipPath id="clip0_311_892">
					<rect width="32" height="32" fill="white" transform="matrix(0 1 -1 0 32 0)" />
				</clipPath>
			</defs>
		</symbol>

</svg>
